<mxfile host="65bd71144e">
    <diagram id="mr286Rq1oBxpNnTvdqS4" name="PÃ¡gina-1">
        <mxGraphModel dx="1124" dy="674" grid="1" gridSize="10" guides="1" tooltips="1" connect="1" arrows="1" fold="1" page="1" pageScale="1" pageWidth="827" pageHeight="1169" math="0" shadow="0">
            <root>
                <mxCell id="0"/>
                <mxCell id="1" parent="0"/>
                <mxCell id="6" value="" style="edgeStyle=none;html=1;" edge="1" parent="1" source="2" target="5">
                    <mxGeometry relative="1" as="geometry"/>
                </mxCell>
                <mxCell id="2" value="INICIO" style="ellipse;whiteSpace=wrap;html=1;fillColor=#d80073;fontColor=#ffffff;strokeColor=#A50040;" vertex="1" parent="1">
                    <mxGeometry x="340" width="120" height="70" as="geometry"/>
                </mxCell>
                <mxCell id="8" value="" style="edgeStyle=none;html=1;" edge="1" parent="1" source="5" target="7">
                    <mxGeometry relative="1" as="geometry"/>
                </mxCell>
                <mxCell id="5" value="&lt;p class=&quot;MsoNormal&quot;&gt;Total_bill_10000 = 0&lt;/p&gt;&lt;p class=&quot;MsoNormal&quot;&gt;&lt;span&gt;total_bill_2000 = 0&lt;/span&gt;&lt;/p&gt;&lt;span&gt;total_mon_100 = 0&lt;/span&gt;" style="whiteSpace=wrap;html=1;fillColor=#6a00ff;fontColor=#ffffff;strokeColor=#3700CC;" vertex="1" parent="1">
                    <mxGeometry x="330" y="120" width="140" height="105" as="geometry"/>
                </mxCell>
                <mxCell id="10" value="" style="edgeStyle=none;html=1;" edge="1" parent="1" source="7" target="9">
                    <mxGeometry relative="1" as="geometry"/>
                </mxCell>
                <mxCell id="7" value="CHEQUE" style="shape=parallelogram;perimeter=parallelogramPerimeter;whiteSpace=wrap;html=1;fixedSize=1;fillColor=#1ba1e2;fontColor=#ffffff;strokeColor=#006EAF;" vertex="1" parent="1">
                    <mxGeometry x="340" y="327.5" width="120" height="60" as="geometry"/>
                </mxCell>
                <mxCell id="12" value="" style="edgeStyle=none;html=1;" edge="1" parent="1" source="9" target="11">
                    <mxGeometry relative="1" as="geometry"/>
                </mxCell>
                <mxCell id="14" value="" style="edgeStyle=none;html=1;" edge="1" parent="1" source="9" target="13">
                    <mxGeometry relative="1" as="geometry"/>
                </mxCell>
                <mxCell id="9" value="CHEQUE !=0&amp;nbsp;&amp;nbsp;" style="rhombus;whiteSpace=wrap;html=1;fillColor=#008a00;fontColor=#ffffff;strokeColor=#005700;" vertex="1" parent="1">
                    <mxGeometry x="350" y="457.5" width="100" height="102.5" as="geometry"/>
                </mxCell>
                <mxCell id="18" value="" style="edgeStyle=none;html=1;" edge="1" parent="1" source="11" target="17">
                    <mxGeometry relative="1" as="geometry"/>
                </mxCell>
                <mxCell id="11" value="&lt;p class=&quot;MsoNormal&quot;&gt;bill_10000= cheque//10000&lt;/p&gt;&lt;span&gt;bill_2000= cheque%10000&lt;/span&gt;&lt;br&gt;&lt;p class=&quot;MsoNormal&quot;&gt;bill_2000= bill_2000// 2000&lt;/p&gt;&lt;span&gt;mon_100= cheque%2000&lt;/span&gt;&lt;br&gt;&lt;br&gt;&lt;span&gt;mon_100= mon_100//100&lt;/span&gt;" style="whiteSpace=wrap;html=1;fillColor=#e3c800;fontColor=#000000;strokeColor=#B09500;" vertex="1" parent="1">
                    <mxGeometry x="320" y="620" width="160" height="168.75" as="geometry"/>
                </mxCell>
                <mxCell id="16" value="" style="edgeStyle=none;html=1;" edge="1" parent="1" source="13" target="15">
                    <mxGeometry relative="1" as="geometry"/>
                </mxCell>
                <mxCell id="13" value="&lt;p class=&quot;MsoNormal&quot;&gt;&lt;/p&gt;&lt;span&gt;total_bill_10000 = 0&lt;/span&gt;&lt;br&gt;&lt;span&gt;total_bill_2000 = 0&lt;/span&gt;&lt;br&gt;&lt;span&gt;total_mon_100 = 0&lt;/span&gt;" style="shape=document;whiteSpace=wrap;html=1;boundedLbl=1;fillColor=#0050ef;fontColor=#ffffff;strokeColor=#001DBC;" vertex="1" parent="1">
                    <mxGeometry x="550" y="462.81" width="130" height="91.88" as="geometry"/>
                </mxCell>
                <mxCell id="15" value="FIN" style="ellipse;whiteSpace=wrap;html=1;fillColor=#e51400;fontColor=#ffffff;strokeColor=#B20000;" vertex="1" parent="1">
                    <mxGeometry x="555" y="650.6300000000001" width="120" height="60" as="geometry"/>
                </mxCell>
                <mxCell id="20" value="" style="edgeStyle=none;html=1;" edge="1" parent="1" source="17" target="19">
                    <mxGeometry relative="1" as="geometry"/>
                </mxCell>
                <mxCell id="17" value="CHEQUE&amp;nbsp;&lt;br&gt;bill_10000&lt;br&gt;bill_2000&lt;br&gt;mon_100" style="shape=document;whiteSpace=wrap;html=1;boundedLbl=1;fillColor=#0050ef;fontColor=#ffffff;strokeColor=#001DBC;" vertex="1" parent="1">
                    <mxGeometry x="335" y="840" width="130" height="120.01" as="geometry"/>
                </mxCell>
                <mxCell id="21" style="edgeStyle=none;html=1;" edge="1" parent="1" source="19">
                    <mxGeometry relative="1" as="geometry">
                        <mxPoint x="400" y="410" as="targetPoint"/>
                        <Array as="points">
                            <mxPoint x="400" y="1120"/>
                            <mxPoint x="160" y="1120"/>
                            <mxPoint x="160" y="410"/>
                        </Array>
                    </mxGeometry>
                </mxCell>
                <mxCell id="19" value="CHEQUE" style="shape=parallelogram;perimeter=parallelogramPerimeter;whiteSpace=wrap;html=1;fixedSize=1;fillColor=#1ba1e2;fontColor=#ffffff;strokeColor=#006EAF;" vertex="1" parent="1">
                    <mxGeometry x="340" y="999.9950000000001" width="120" height="60" as="geometry"/>
                </mxCell>
            </root>
        </mxGraphModel>
    </diagram>
</mxfile>